<?xml version="1.0" standalone="no"?>
<!DOCTYPE svg PUBLIC "-//W3C//DTD SVG 20010904//EN"
 "http://www.w3.org/TR/2001/REC-SVG-20010904/DTD/svg10.dtd">
<svg version="1.0" xmlns="http://www.w3.org/2000/svg"
  viewBox="0 0 300.000000 312.000000"
 preserveAspectRatio="xMidYMid meet">
<g transform="translate(0.000000,312.000000) scale(0.050000,-0.050000)" stroke="none">
<path d="M1290 5213 c-707 -236 -652 -1250 82 -1502 183 -63 213 85 37 177
-463 242 -591 756 -261 1046 256 225 660 154 1225 -218 595 -391 1108 -511
1737 -404 l80 14 -43 -48 c-112 -125 -367 -484 -367 -516 0 -51 64 -103 111
-89 49 13 569 712 569 764 0 23 -57 80 -155 154 -85 64 -240 181 -345 260
-257 194 -340 211 -340 72 1 -51 80 -118 489 -411 84 -59 -550 -68 -833 -11
-268 54 -472 148 -806 371 -467 313 -896 437 -1180 341z" fill="#2c374f"/>
<path d="M1665 4147 c-111 -45 125 -353 494 -644 156 -123 545 -312 761 -369
268 -71 290 -74 775 -93 553 -22 866 -116 1024 -309 15 -19 54 -48 85 -64 95
-49 45 -68 -190 -70 -413 -5 -483 -17 -490 -90 -11 -108 5 -111 495 -84 267
15 457 33 476 47 31 23 7 813 -28 934 -13 47 -99 67 -140 32 -34 -27 -30 -418
6 -597 l13 -70 -92 85 c-301 275 -591 366 -1194 375 -801 11 -1460 317 -1823
844 -57 83 -101 102 -172 73z" fill="#037f71"/>
<path d="M284 3596 c-100 -100 -23 -144 346 -195 717 -99 732 -115 574 -591
-309 -932 -313 -960 -158 -1127 93 -100 412 -182 710 -183 170 -1 161 -20
-107 -228 -237 -184 -251 -199 -245 -259 12 -123 103 -101 320 81 103 86 256
210 341 276 206 160 210 144 -120 560 -283 357 -331 396 -401 326 -50 -50 143
-353 334 -524 52 -47 56 -99 7 -85 -64 18 -153 33 -382 62 -469 61 -465 1 -92
1151 110 339 39 535 -229 629 -189 67 -858 147 -898 107z" fill="#ef946a"/>
</g>
</svg>
