<?xml version="1.0" standalone="no"?>
<!DOCTYPE svg PUBLIC "-//W3C//DTD SVG 20010904//EN"
 "http://www.w3.org/TR/2001/REC-SVG-20010904/DTD/svg10.dtd">
<svg version="1.0" xmlns="http://www.w3.org/2000/svg" viewBox="0 0 286.000000 161.000000"
 preserveAspectRatio="xMidYMid meet">
<metadata>
Created by potrace 1.10, written by Peter Selinger 2001-2011
</metadata>
<g transform="translate(0.000000,161.000000) scale(0.050000,-0.050000)"
fill="#000000" stroke="none">
<path d="M2213 2825 c-20 -68 -77 -706 -66 -735 14 -35 104 -40 125 -7 7 12
23 140 36 284 l22 261 38 -59 c204 -323 708 -581 1342 -690 706 -120 1258
-460 1599 -984 116 -179 192 -227 224 -143 35 89 -277 503 -532 708 -48 39
-97 79 -109 90 -22 20 -104 74 -262 173 -228 143 -506 237 -915 308 -540 94
-830 226 -1155 526 -160 148 -162 146 131 116 300 -30 313 -28 305 54 l-6 63
-320 33 c-425 44 -445 45 -457 2z" fill="#2c374f" />
<path d="M262 2105 c-11 -41 -39 -147 -62 -235 -91 -345 -100 -392 -82 -426
20 -38 561 -190 682 -193 90 -1 121 118 36 139 -25 6 -140 32 -256 58 -227 50
-235 57 -136 114 611 356 1084 389 1624 115 144 -73 218 -66 208 19 -7 60 -41
81 -306 186 -564 223 -1215 132 -1625 -229 -68 -60 -77 -26 -30 112 125 370
127 415 26 415 -52 0 -62 -9 -79 -75z"  fill="#ef946a" />
<path d="M2635 1386 c-63 -75 -168 -199 -234 -276 -149 -173 -149 -162 13
-303 74 -64 161 -139 192 -167 32 -27 95 -84 141 -125 93 -83 142 -94 172 -36
33 60 17 81 -172 233 -53 43 -101 83 -107 89 -5 6 -36 30 -68 55 l-57 44 220
0 c610 0 1029 -202 1364 -656 91 -123 116 -145 159 -140 92 11 77 79 -55 250
-368 481 -814 696 -1423 686 -126 -3 -238 -3 -247 -2 -10 1 9 27 40 57 256
246 343 407 227 421 -41 5 -72 -20 -165 -130z" fill="#037f71" />
</g>
</svg>
